# xmcd
#
# Track frame offsets: 
#        183
#        13558
#        25708
#        38983
#        52308
#        67183
#        79133
#        91183
#        100408
#        118108
#        131683
#        144958
#        158783
#        169633
#        183808
#        197563
#        212808
#        223333
#        237208
#        249693
#        260083
#        281608
#        299533
#        311983
#
# Disc length: 4332 seconds
#
# Revision: 3
# Processed by: cddbd v1.5.2PL0 Copyright (c) Steve Scherf et al.
# Submitted via: ExactAudioCopy v1.0b3
#
DISCID=7110ea18
DTITLE=Various Artist - Masters 2 Of Blues
DYEAR=1990
DGENRE=Blues
TTITLE0=Muddy Waters - You Can't Lose What You Never Had
TTITLE1=Muddy Waters - Walkin' Thru The Park
TTITLE2=Howlin' Wolf - Tell Me
TTITLE3=Howlin' Wolf - Worried About My Baby
TTITLE4=Sonny Boy Williamson - I Can't Be Alone
TTITLE5=Sonny Boy Williamson - Stop Crying
TTITLE6=Hound Dog Taylor - Down Home Special
TTITLE7=Buddy Guy - American Bandstand
TTITLE8=Buddy Guy - Stick Around
TTITLE9=John Lee Hooker - Stella Mae
TTITLE10=Albert King - Won't Be Hangin' Around
TTITLE11=Albert King - Searchin' For A Woman
TTITLE12=Otis Rush - I'm Satisfied
TTITLE13=Little Walter - Sad Hours
TTITLE14=Little Walter - You're So Fine
TTITLE15=Chuck Berry - Rock At The Philharmonic
TTITLE16=Chuck Berry - Driftin' Blues
TTITLE17=Bo Diddley - Before You Accuse Me
TTITLE18=Bo Diddley - Road Runner
TTITLE19=Muddy Waters - Sugar Sweet
TTITLE20=Muddy Waters - Nine Below Zero
TTITLE21=Muddy Waters - Muddy Waters - Boom, Boom
TTITLE22=Howlin' Wolf - Movin'
TTITLE23=Howlin' Wolf - Stop Using Me
EXTD=
EXTT0=
EXTT1=
EXTT2=
EXTT3=
EXTT4=
EXTT5=
EXTT6=
EXTT7=
EXTT8=
EXTT9=
EXTT10=
EXTT11=
EXTT12=
EXTT13=
EXTT14=
EXTT15=
EXTT16=
EXTT17=
EXTT18=
EXTT19=
EXTT20=
EXTT21=
EXTT22=
EXTT23=
PLAYORDER=
